PathFileType	4	(X/Y/Z)	/Users/itak/Documents/Research/Walk-IL/dataset/trc/00540_00009.trc
DataRate	CameraRate	NumFrames	NumMarkers	Units	OrigDataRate	OrigDataStartFrame	OrigNumFrames
100.000000	100.000000	4	53	mm	100.000000	256	684
Frame#	Time	RPSI			LPSI			L3			STRN			T10			C7			CLAV			RBAK			LBAK			LSHO			LUPA			LAEL			LAOL			LWTS			LWPS			LFRA			LIFD			LHPS			LHTS			RSHO			RUPA			RAEL			RAOL			RWTS			RWPS			RFRA			RIFD			RHTS			RHPS			RBHD			LFHD			RFHD			LBHD			LHIP			RHIP			RASI			LASI			LKNE			LTHI			LANK			LTIP			LTOE			LMT1			LMT5			LHEE			RKNE			RTHI			RANK			RTIP			RTOE			RMT1			RMT5			RHEE			
		X1	Y1	Z1	X2	Y2	Z2	X3	Y3	Z3	X4	Y4	Z4	X5	Y5	Z5	X6	Y6	Z6	X7	Y7	Z7	X8	Y8	Z8	X9	Y9	Z9	X10	Y10	Z10	X11	Y11	Z11	X12	Y12	Z12	X13	Y13	Z13	X14	Y14	Z14	X15	Y15	Z15	X16	Y16	Z16	X17	Y17	Z17	X18	Y18	Z18	X19	Y19	Z19	X20	Y20	Z20	X21	Y21	Z21	X22	Y22	Z22	X23	Y23	Z23	X24	Y24	Z24	X25	Y25	Z25	X26	Y26	Z26	X27	Y27	Z27	X28	Y28	Z28	X29	Y29	Z29	X30	Y30	Z30	X31	Y31	Z31	X32	Y32	Z32	X33	Y33	Z33	X34	Y34	Z34	X35	Y35	Z35	X36	Y36	Z36	X37	Y37	Z37	X38	Y38	Z38	X39	Y39	Z39	X40	Y40	Z40	X41	Y41	Z41	X42	Y42	Z42	X43	Y43	Z43	X44	Y44	Z44	X45	Y45	Z45	X46	Y46	Z46	X47	Y47	Z47	X48	Y48	Z48	X49	Y49	Z49	X50	Y50	Z50	X51	Y51	Z51	X52	Y52	Z52	X53	Y53	Z53	

257	2.56	-299.5339050292969	1011.789184570312	511.1944580078125	-300.3452453613281	1014.351135253906	377.8816833496094	-288.7510375976562	1114.504150390625	444.9200134277344	-43.56404876708984	1284.684692382812	430.4077758789062	-289.9762573242188	1239.528076171875	447.3834228515625	-221.2790222167969	1508.375854492188	460.5593566894531	-55.84305572509766	1396.185668945312	433.4020385742188	-291.9295043945312	1387.360961914062	552.4131469726562	-266.3874206542969	1460.466430664062	371.1219482421875	-172.6822662353516	1479.046508789062	281.8704223632812	-199.185791015625	1355.1201171875	202.0741729736328	-199.0840454101562	1134.108520507812	173.7425689697266	-280.1990051269531	1129.069458007812	235.1043090820312	-101.7489776611328	892.2565307617188	204.5562133789062	-156.8913726806641	869.8098754882812	140.0161590576172	-178.4897003173828	1048.462280273438	163.2845001220703	-104.3020858764648	721.3934326171875	197.6453094482422	-146.3596496582031	810.093505859375	146.1475524902344	-88.95797729492188	815.1194458007812	182.1037445068359	-149.7213592529297	1461.979614257812	608.4926147460938	-165.0228881835938	1398.359252929688	677.6124267578125	-179.4322052001953	1109.522583007812	724.324462890625	-236.7921600341797	1094.047973632812	701.9842529296875	-55.9725227355957	885.9656372070312	675.891845703125	-94.71839141845703	867.0165405273438	745.5325927734375	-170.0999450683594	1053.6455078125	731.3604736328125	-47.45304489135742	713.1759033203125	679.4035034179688	-27.51862144470215	794.4965209960938	689.0956420898438	-78.27486419677734	793.158935546875	743.3370361328125	-130.7304229736328	1681.845703125	517.6448974609375	21.16307067871094	1694.94921875	376.1953125	9.503490447998047	1694.405639648438	520.1368408203125	-110.2132797241211	1680.31005859375	353.4889831542969	-162.8439025878906	939.2654418945312	257.2284240722656	-178.5004119873047	934.5421142578125	633.1351318359375	-90.25754547119141	963.8310546875	575.7814331054688	-93.69879150390625	966.0718383789062	299.3265380859375	8.73622989654541	525.2824096679688	281.1554260253906	-53.19515609741211	682.8449096679688	249.2842254638672	-58.45849990844727	46.47268295288086	260.5776672363281	-47.14488983154297	274.6017150878906	262.6611938476562	148.5147247314453	69.37892913818359	306.5330505371094	80.56723785400391	61.27934265136719	344.8200073242188	60.46889877319336	53.27899932861328	241.7472686767578	-124.8432922363281	46.14616012573242	316.3527526855469	-169.6237030029297	489.2074584960938	558.4733276367188	-141.498291015625	777.7127075195312	617.2261352539062	-292.7870178222656	37.15634155273438	505.517822265625	-181.7705841064453	346.3085632324219	532.0882568359375	-73.54148864746094	40.0621337890625	457.9261474609375	-137.9239349365234	42.54916000366211	419.9160461425781	-158.6329040527344	37.03504943847656	523.654541015625	-349.8579406738281	34.60067749023438	450.4046020507812	
258	2.57	-296.065185546875	1011.61083984375	511.0345458984375	-296.7300415039062	1014.076599121094	377.7042846679688	-285.1914367675781	1114.260620117188	444.8091430664062	-39.70988464355469	1284.105834960938	430.268798828125	-286.2080383300781	1239.290161132812	447.2516479492188	-217.0927276611328	1508.061279296875	460.4668884277344	-51.8495979309082	1395.632690429688	433.2699584960938	-287.9337158203125	1387.102783203125	552.2767944335938	-262.2573852539062	1460.227172851562	371.055419921875	-168.6211395263672	1478.668823242188	281.7417907714844	-195.6481628417969	1354.858276367188	201.9563293457031	-196.6922607421875	1133.874877929688	173.4837799072266	-277.6558227539062	1129.189453125	234.9971618652344	-100.6019744873047	891.38330078125	204.2374267578125	-155.7568054199219	869.4330444335938	139.5150909423828	-176.4647979736328	1048.156616210938	162.9593505859375	-104.4403991699219	720.5499267578125	197.1269073486328	-145.6528167724609	809.63525390625	145.5619659423828	-88.32658386230469	814.1571044921875	181.70361328125	-145.6277770996094	1461.50390625	608.3894653320312	-161.1000213623047	1397.863037109375	677.4887084960938	-175.9732971191406	1109.012817382812	723.9609375	-233.3730316162109	1093.6767578125	701.5706176757812	-53.17068862915039	885.0948486328125	675.5051879882812	-91.98782348632812	866.2416381835938	745.1387939453125	-166.8200225830078	1053.121337890625	731	-45.25775146484375	712.2474975585938	678.9541015625	-25.02881622314453	793.4921264648438	688.6510620117188	-75.79074859619141	792.31396484375	742.8975830078125	-126.2360305786133	1681.393432617188	517.614013671875	25.57356834411621	1694.306396484375	376.0754089355469	13.97409915924072	1693.736572265625	520.037841796875	-105.8330764770508	1679.84326171875	353.4330139160156	-159.3194122314453	938.8613891601562	257.3069763183594	-175.3117523193359	934.2371215820312	633.1618041992188	-86.95331573486328	963.3624267578125	575.88232421875	-90.10261535644531	965.6099853515625	299.4488830566406	14.14675235748291	525.9794921875	281.2908325195312	-48.84276962280273	683.0369873046875	249.1202239990234	-41.79660034179688	45.81904602050781	262.2914428710938	-35.86210250854492	274.1996154785156	263.5996398925781	164.6656494140625	71.92571258544922	308.7850646972656	96.68122100830078	62.98923110961914	346.9212341308594	77.09729766845703	54.32329177856445	243.7741851806641	-108.392951965332	44.55212020874023	317.7732238769531	-168.7823791503906	488.9924621582031	558.5618896484375	-138.8629150390625	777.2752685546875	617.0604858398438	-292.7983703613281	37.18173599243164	505.4671020507812	-181.3183746337891	346.1365051269531	532.1466064453125	-73.5438232421875	40.11874008178711	457.9823608398438	-137.9833679199219	42.52068710327148	419.853759765625	-158.5938262939453	37.05128860473633	523.686279296875	-349.90234375	34.6411018371582	450.4131469726562	
259	2.58	-292.5357360839844	1011.406372070312	510.8309936523438	-293.027587890625	1013.751708984375	377.4901733398438	-281.5474548339844	1113.958129882812	444.6368408203125	-35.79489135742188	1283.493530273438	430.1076049804688	-282.3756408691406	1239.002197265625	447.0539855957031	-212.8675994873047	1507.704956054688	460.30859375	-47.81283569335938	1395.035400390625	433.1143798828125	-283.9132385253906	1386.798461914062	552.0677490234375	-258.0736083984375	1459.9365234375	370.9258422851562	-164.5009002685547	1478.236206054688	281.5657043457031	-192.0550231933594	1354.544189453125	201.7978668212891	-194.2617034912109	1133.61181640625	173.2009887695312	-275.0763549804688	1129.258056640625	234.8774261474609	-99.33626556396484	890.54248046875	203.9005737304688	-154.5065460205078	869.0293579101562	139.0239410400391	-174.3973083496094	1047.81396484375	162.6120910644531	-104.2762756347656	719.7457275390625	196.6069946289062	-144.7794952392578	809.1634521484375	144.9947509765625	-87.48220825195312	813.2582397460938	181.2707366943359	-141.5168914794922	1460.995971679688	608.2366333007812	-157.1878509521484	1397.332885742188	677.3197631835938	-172.54248046875	1108.468017578125	723.5676879882812	-229.9804077148438	1093.273193359375	701.114990234375	-50.34368133544922	884.2227783203125	675.1204223632812	-89.25685882568359	865.4531860351562	744.7346801757812	-163.5691528320312	1052.561279296875	730.612548828125	-43.00886154174805	711.3195190429688	678.5020141601562	-22.49920654296875	792.49072265625	688.2120361328125	-73.28830718994141	791.4558715820312	742.4490966796875	-121.7212448120117	1680.919189453125	517.5299682617188	30.01715087890625	1693.6484375	375.9254150390625	18.4458122253418	1693.052368164062	519.9080200195312	-101.408203125	1679.342163085938	353.3160095214844	-155.7096557617188	938.3702392578125	257.3868713378906	-172.0795593261719	933.9329833984375	633.1670532226562	-83.59302520751953	962.8641967773438	575.9732666015625	-86.42005920410156	965.0612182617188	299.5718078613281	19.51680755615234	526.5526733398438	281.3915710449219	-44.47412872314453	683.1036376953125	248.8980712890625	-25.57966423034668	45.33918762207031	263.8529357910156	-24.8350944519043	273.864501953125	264.4229431152344	180.3654479980469	74.80443572998047	310.6759033203125	112.4078216552734	64.98488616943359	348.7223205566406	93.23727416992188	55.63255310058594	245.5327301025391	-92.25347137451172	43.14724731445312	319.15185546875	-167.9964752197266	488.7875061035156	558.6207885742188	-136.2310180664062	776.8303833007812	616.912109375	-292.814453125	37.20769500732422	505.410400390625	-180.9259033203125	345.9769592285156	532.218505859375	-73.55973052978516	40.18364715576172	458.0402526855469	-138.0550384521484	42.44665145874023	419.7645874023438	-158.5689086914062	37.06258010864258	523.718017578125	-349.9358520507812	34.68642425537109	450.4069519042969	
260	2.59	-288.9256591796875	1011.174011230469	510.5719299316406	-289.2361755371094	1013.37841796875	377.2314453125	-277.8143310546875	1113.603393554688	444.3963623046875	-31.81771087646484	1282.852661132812	429.9210205078125	-278.4742126464844	1238.66943359375	446.7879943847656	-208.6053161621094	1507.308715820312	460.0849304199219	-43.73032760620117	1394.398559570312	432.9259033203125	-279.8650817871094	1386.44921875	551.7858276367188	-253.8379364013672	1459.595825195312	370.73486328125	-160.3203582763672	1477.750366210938	281.3422241210938	-188.3966674804688	1354.175415039062	201.6036529541016	-191.7685241699219	1133.317138671875	172.8969116210938	-272.4425964355469	1129.274291992188	234.7531585693359	-97.92771911621094	889.7323608398438	203.5287628173828	-153.1355133056641	868.5924072265625	138.5452423095703	-172.2715454101562	1047.431030273438	162.2457885742188	-103.7962341308594	718.9747924804688	196.0829467773438	-143.7351989746094	808.6700439453125	144.4504852294922	-86.42057800292969	812.4113159179688	180.7998504638672	-137.3880310058594	1460.453369140625	608.0336303710938	-153.2751617431641	1396.769287109375	677.1022338867188	-169.1306457519531	1107.88525390625	723.1458740234375	-226.6095428466797	1092.838134765625	700.6229858398438	-47.48456954956055	883.3451538085938	674.7341918945312	-86.51844787597656	864.65087890625	744.3226928710938	-160.3415069580078	1051.96728515625	730.2022094726562	-40.69972229003906	710.392578125	678.0537719726562	-19.92301750183105	791.4953002929688	687.7803955078125	-70.7625732421875	790.587646484375	741.9984741210938	-117.1890487670898	1680.423583984375	517.39306640625	34.49521636962891	1692.977905273438	375.7458801269531	22.9243278503418	1692.3623046875	519.7442016601562	-96.93881988525391	1678.809448242188	353.1396789550781	-152.0029449462891	937.8035888671875	257.4597778320312	-168.7864074707031	933.6279907226562	633.1421508789062	-80.17001342773438	962.3367309570312	576.0496215820312	-82.64035034179688	964.4374389648438	299.6864624023438	24.86196517944336	527.0077514648438	281.4765014648438	-40.06561660766602	683.0499877929688	248.6312713623047	-9.847880363464355	45.0329475402832	265.2098083496094	-14.05814456939697	273.5934143066406	265.108642578125	195.56884765625	77.92415618896484	312.19873046875	127.699577331543	67.17462921142578	350.1996154785156	108.8456649780273	57.17465209960938	246.9951934814453	-76.48236083984375	41.93494033813477	320.4190673828125	-167.2559967041016	488.5893859863281	558.6408081054688	-133.5989227294922	776.3857421875	616.7859497070312	-292.8363952636719	37.23573303222656	505.3462829589844	-180.5935211181641	345.8333740234375	532.295654296875	-73.59064483642578	40.25069427490234	458.093505859375	-138.1325836181641	42.33624649047852	419.6616821289062	-158.5663909912109	37.06421661376953	523.7413330078125	-349.9609375	34.73251724243164	450.3801879882812	
